<?xml version="1.0" encoding="iso-8859-1"?>
<svg version="1.1" id="Layer_1" xmlns="http://www.w3.org/2000/svg" xmlns:xlink="http://www.w3.org/1999/xlink" x="0px" y="0px"
	 viewBox="0 0 512 512" style="enable-background:new 0 0 512 512;" xml:space="preserve">
<g>
	<g>
		<path fill="#fff" d="M256,372.364c-87.831,0-173.936-14.622-256-43.445v35.305c15.165,5.08,30.46,9.693,45.867,13.848l25.985,114.573
			l70.856-94.789c18.282,2.572,36.679,4.518,55.172,5.835V512L256,466.989L314.12,512V403.691
			c18.493-1.317,36.891-3.262,55.172-5.835l70.856,94.789l25.985-114.573c15.408-4.154,30.701-8.769,45.866-13.847V328.92
			C429.936,357.742,343.83,372.364,256,372.364z"/>
	</g>
</g>
<g>
	<g>
		<path fill="#fff" d="M512,164.459c-82.064,28.822-168.17,43.444-256,43.444c-87.831,0.002-173.936-14.62-256-43.443v35.305
			c12.348,4.136,24.782,7.959,37.291,11.481L15.004,316.102l66.208-31.943l47.491,56.111l22.474-105.729
			c18.256,2.372,36.625,4.123,55.084,5.246L256,347.54l49.741-107.755c18.46-1.123,36.828-2.874,55.085-5.246l22.473,105.729
			l47.491-56.111l66.207,31.943L474.71,211.245c12.51-3.523,24.943-7.346,37.29-11.481V164.459z"/>
	</g>
</g>
<g>
	<g>
		<path fill="#fff" d="M256,43.445C168.169,43.445,82.064,28.823,0,0v35.305c15.165,5.08,30.46,9.693,45.867,13.849l25.985,114.573
			l70.856-94.789c18.282,2.572,36.679,4.518,55.172,5.835v108.309L256,138.07l58.12,45.011V74.772
			c18.493-1.317,36.891-3.262,55.172-5.835l70.855,94.789l25.986-114.574c15.408-4.154,30.701-8.769,45.866-13.847V0
			C429.936,28.823,343.83,43.445,256,43.445z"/>
	</g>
</g>
<g>
</g>
<g>
</g>
<g>
</g>
<g>
</g>
<g>
</g>
<g>
</g>
<g>
</g>
<g>
</g>
<g>
</g>
<g>
</g>
<g>
</g>
<g>
</g>
<g>
</g>
<g>
</g>
<g>
</g>
</svg>
